<?xml version="1.0" encoding="utf-8"?>
<!-- Generator: Adobe Illustrator 19.0.0, SVG Export Plug-In . SVG Version: 6.00 Build 0)  -->
<svg version="1.1" id="scene2" xmlns="http://www.w3.org/2000/svg" xmlns:xlink="http://www.w3.org/1999/xlink" x="0px" y="0px"
	 viewBox="-61 0 900 768" style="enable-background:new -61 0 900 768;" xml:space="preserve">
<style type="text/css">
	.st0{fill:#E64C3C;stroke:#000000;stroke-width:3;stroke-miterlimit:10;}
	.st1{enable-background:new    ;}
	.st2{fill:#ECF0F1;}
	.st3{font-family:'MyriadPro-Regular';}
	.st4{font-size:30px;}
	.st5{font-family:'ArialHebrew-Light';}
	.st6{fill:#FFFFFF;}
	.st7{fill:#434A54;stroke:#0E0E0E;stroke-width:3;stroke-linecap:round;stroke-linejoin:round;stroke-miterlimit:10;}
	.st8{fill:none;stroke:#00BBDE;stroke-width:3;stroke-linecap:round;stroke-linejoin:round;stroke-miterlimit:10;}
	.st9{fill:none;stroke:#0E0E0E;stroke-width:3;stroke-linecap:round;stroke-linejoin:round;stroke-miterlimit:10;}
	.st10{fill:none;stroke:#FFFFFF;stroke-width:3;stroke-dasharray:6000;stroke-dashoffset:6000;}
</style>
<rect id="XMLID_1_" x="-1424.8" y="-1117.3" class="st0" width="3684.8" height="3018.1"/>
<g id="intro-text">
	<text transform="matrix(1 0 0 1 39 53)" class="st1"><tspan x="0" y="0" class="st2 st3 st4">Portfolio</tspan><tspan x="108" y="0" class="st2 st5 st4">: </tspan></text>
</g>
<g id="XMLID_3_">
	<path id="proj-1" class="st6" d="M492.6,96.1c0-5,4.5-9.1,10-9.1h288.3c5.5,0,10,4.1,10,9.1v269.1c0,5-4.5,9.1-10,9.1H502.6
		c-5.5,0-10-4.1-10-9.1V96.1z"/>
	<path id="proj-3" class="st6" d="M492.6,448.6c0-5.5,4.5-10,10-10h288.3c5.5,0,10,4.5,10,10V743c0,5.5-4.5,10-10,10H502.6
		c-5.5,0-10-4.5-10-10V448.6z"/>
	<path id="proj-4" class="st6" d="M-20.9,448.6c0-5.5,4.5-10,10-10h288.3c5.5,0,10,4.5,10,10V743c0,5.5-4.5,10-10,10H-10.9
		c-5.5,0-10-4.5-10-10V448.6z"/>
</g>
<path class="st7" d="M191.3,135c-0.8,1.3-2.1,3.5-2.8,4.7c-1.8,3-1.8,3-1.8,3c1.7,2.3,8.6,6.7,9.8,8.7l-13.7-0.9
	c-3.7,7.6-7.3,15.2-11,22.8c-1,2.1-1.1,2.1-2,4.2c-0.2,0.4,7.1,7.6,8.8,10.9c-5.1-0.1-12.1-2.2-12.1-2.2c-1.2,2.3-2.2,4.3-3.5,7.3
	c16.6,6.8,32.5,13.2,48.3,21.7c1.2,0.7,3.1,1.5,3.1,1.5c1.3-3.2,2.8-6.9,2.8-6.9c-3.9-4.1-3.9-4.1-5.3-5.8c3.5,0.4,9.7,0.8,9.7,0.8
	c0.3-0.7,0.7-1.2,1-1.7c3.7-6.7,7.2-13.6,10.4-20.6c1-2.3,1.1-2,2.7-6.4c0,0-4.4-6.5-6-8.5c5.1,0.4,9.6,0.5,9.6,0.5
	c0.8-2.4,1.9-5.3,2.7-7.7"/>
<g>
	<g id="svg_1" transform="rotate(-22.668537139892578 266.3624572753907,171.6850738525391) ">
		<path id="svg_2" class="st8" d="M204.4,146.2c5.6,1.1,5.1,8.3-0.6,8.8C198.3,153.9,198.7,146.7,204.4,146.2z"/>
		
			<g id="svg_4" transform="matrix(0.9310254768758562,0.30341844876503754,-0.30578573629166794,0.9238177992872552,68.87476159977444,-73.25795158138024) ">
			
				<g id="svg_5" transform="matrix(0.39240928503939787,-0.6821318691779974,0.6712029906920159,0.3987986984544735,46.77552171978908,299.9677520991358) ">
				<path id="svg_8" class="st7" d="M278.5,129.9c0,3.4,1.2,4.1,3.4,4.1s13.3-0.5,16-0.6c2.6-0.1,3.1-2.4,2.9-4.9
					c-0.1-2.5-1.9-22.4-1.9-22.4V89.2c0,0,2-21.9,2-25c0-3.1-1.5-4-2.8-4.1c-1.2-0.1-14.7-0.7-17.1-0.8c-2.4-0.1-2.7,1.4-2.7,2.8
					L278.5,129.9L278.5,129.9L278.5,129.9L278.5,129.9z"/>
				<line id="svg_9" class="st9" x1="256.1" y1="58.8" x2="256.1" y2="134.5"/>
				<line id="svg_11" class="st9" x1="256.1" y1="58.8" x2="256.1" y2="132.9"/>
			</g>
		</g>
		
			<g id="svg_13" transform="matrix(0.5739292375989248,-0.5111013456600678,0.5029601308504749,0.5720727062070587,-15.394199785368869,215.7421302331087) ">
			<path id="svg_17" class="st7" d="M229.3,163.7c0,3.4-1.2,4.1-3.4,4.1s-13.3-0.5-16-0.6c-2.6-0.1-3.1-2.4-2.9-4.9
				c0.1-2.5,1.9-22.4,1.9-22.4l0-16.9c0,0-2-21.9-2-25c0-3.1,1.5-4,2.8-4.1c1.2-0.1,14.7-0.7,17.1-0.8c2.4-0.1,2.7,1.4,2.7,2.8
				L229.3,163.7L229.3,163.7L229.3,163.7L229.3,163.7z"/>
			<line id="svg_18" class="st9" x1="251.6" y1="92.6" x2="251.6" y2="168.3"/>
			<line id="svg_20" class="st9" x1="251.6" y1="92.6" x2="251.6" y2="166.7"/>
		</g>
	</g>
</g>
<g>
	<path id="mouse-wire-2" class="st10" d="M1020.1-7.4c3.8,58.1-23.2,63.9-52.1,64.7c-16.5,0.5-456.3,0.2-481.5,0.2
		c-30,0-33.5,10.3-33.5,30C452.5,407,452.1,652,452,666c-0.1,20.5,0.5,104.5,0,197.5c-0.6,93.3-46.6,104-45.9,141.6
		c0.4,23.4,10.2,57.2,24,69"/>
</g>
</svg>
