<?xml version="1.0" encoding="utf-8"?>
<!-- Generator: Adobe Illustrator 19.0.0, SVG Export Plug-In . SVG Version: 6.00 Build 0)  -->
<svg version="1.1" id="SkillsSVG1" xmlns="http://www.w3.org/2000/svg" xmlns:xlink="http://www.w3.org/1999/xlink" x="0px" y="0px"
	 viewBox="440 -89 1903 947" style="enable-background:new 440 -89 1903 947;" xml:space="preserve">
<style type="text/css">
	.s3t0{fill:#44C650;}
	.s3t1{enable-background:new    ;}
	.s3t2{fill:#ECF0F1;}
	.s3t3{font-family:'MyriadPro-Regular';}
	.s3t4{font-size:36.9922px;}
	.s3t5{font-family:'ArialHebrew-Light';}
	.s3t6{fill:#459B45;}
	.s3t7{fill:#656D78;}
	.s3t8{fill:#AAB2BD;}
	.s3t9{fill:url(#imaclight_1_);}
	.s3t10{fill:#E6E9ED;}
	.s3t11{fill:#3498DB;}
	.s3t12{font-size:18.4961px;}
	.s3t13{font-family:'ArialMT';}
	.s3t14{opacity:0.6;}
	.s3t15{opacity:0.8;fill:#459B45;enable-background:new    ;}
	.s3t16{fill:#EBEFF0;}
	.s3t17{fill:#CCD1D9;}

		.s3t18{opacity:0.6;fill:none;stroke:#EBEFF0;stroke-width:3;stroke-dasharray:6000;stroke-dashoffset:6000;enable-background:new    ;}
	.s3t19{fill:none;stroke:#000000;stroke-width:4;stroke-miterlimit:10;}
</style>
<rect id="bg" x="-8645.4" y="-8685.3" class="s3t0" width="20089" height="18229.7"/>
<g id="Skills2Container" inkscape:version="0.48.4 r9939" sodipodi:docname="drawing.svg" xmlns:svg="http://www.w3.org/2000/svg" xmlns:sodipodi="http://sodipodi.sourceforge.net/DTD/sodipodi-0.dtd" xmlns:dc="http://purl.org/dc/elements/1.1/" xmlns:rdf="http://www.w3.org/1999/02/22-rdf-syntax-ns#" xmlns:cc="http://creativecommons.org/ns#" xmlns:inkscape="http://www.inkscape.org/namespaces/inkscape">
	<g>
		<text transform="matrix(1 0 0 1 884.3438 -2.6847)" class="s3t1"><tspan x="0" y="0" class="s3t2 st3 st4">Skills</tspan><tspan x="76.4" y="0" class="s3t2 st5 st4"> </tspan><tspan x="86.6" y="0" class="s3t2 st3 st4">and</tspan><tspan x="145.9" y="0" class="s3t2 st5 st4"> </tspan><tspan x="156.1" y="0" class="s3t2 st3 st4">Abilities</tspan><tspan x="280" y="0" class="s3t2 st5 st4">:</tspan></text>
	</g>
	<g id="monitor">
		<path id="svg_1" class="s3t6" d="M1633.7,171.3c1.9-8,9.8-12.9,17.8-11l70.4,16.5c8,1.9,12.9,9.8,11,17.8l-7.1,68.4
			c-1.9,8-9.8,12.9-17.8,11l-87.2-20.4c-8-1.9-12.9-9.8-11-17.8L1633.7,171.3z"/>
		<path id="svg_2" class="s3t7" d="M1642.6,166.9c1.9-8,9.8-12.9,17.8-11l70.4,16.5c8,1.9,12.9,9.8,11,17.8l-7.1,68.4
			c-1.9,8-9.8,12.9-17.8,11l-87.2-20.4c-8-1.9-12.9-9.8-11-17.8L1642.6,166.9z"/>
		<path id="svg_3" class="s3t8" d="M1649,168.4c1.9-8,9.8-12.9,17.8-11l56.8,13.3c8,1.9,12.9,9.8,11,17.8l-3.4,14.4
			c-1.9,8-9.8,12.9-17.8,11l-56.8-13.3c-8-1.9-12.9-9.8-11-17.8L1649,168.4z"/>

			<radialGradient id="imaclight_1_" cx="1283.5394" cy="-1439.9873" r="262.548" gradientTransform="matrix(1.2047 0.2614 6.658594e-02 -0.3083 223.5323 -534.4471)" gradientUnits="userSpaceOnUse">
			<stop  offset="0.103" style="stop-color:#FFFFFF;stop-opacity:0.4"/>
			<stop  offset="0.795" style="stop-color:#FFFFFF;stop-opacity:5.700000e-02"/>
			<stop  offset="0.909" style="stop-color:#FFFFFF;stop-opacity:0"/>
		</radialGradient>
		<polygon id="imaclight" class="s3t9" points="2056.4,407.3 1343.5,245.2 1412.4,123.9 2050.3,273.3 		"/>

			<rect id="svg_4" x="1354.7" y="207.9" transform="matrix(0.9737 0.2279 -0.2279 0.9737 95.8002 -377.5267)" class="s3t10" width="655.5" height="36.2"/>
		<path id="svg_5" class="s3t7" d="M2005.8,283.2c0,0-132-52.9-317.3-96.2c-185.3-43.4-320.6-53.1-320.6-53.1L2005.8,283.2
			L2005.8,283.2z"/>
	</g>
	<g id="SkillBlock1" transform="translate(0, 0)">
		<path class="s3t11" d="M771.6,67.4h317v163.7h-317V67.4L771.6,67.4z"/>
		<path class="s3t11" d="M1145.5,150.8l-59.2,16v-29.6L1145.5,150.8z"/>
		<text transform="matrix(1 0 0 1 781.4931 217.1055)" class="s3t1"><tspan x="0" y="0" class="s3t2 st5 st12">-</tspan><tspan x="6.2" y="0" class="s3t2 st3 st12"> Robotics Enthusiast</tspan></text>
		<text transform="matrix(1 0 0 1 780.7358 158.3691)" class="s3t1"><tspan x="0" y="0" class="s3t2 st5 st12">-</tspan><tspan x="6.2" y="0" class="s3t2 st3 st12"> Full Stack Developer</tspan></text>
		<g>
			<text transform="matrix(1 0 0 1 781.2412 129.001)" class="s3t1"><tspan x="0" y="0" class="s3t2 st5 st12">-</tspan><tspan x="6.2" y="0" class="s3t2 st3 st12"> Competitive Programmer</tspan></text>
			<text transform="matrix(1 0 0 1 781.7457 99.6329)" class="s3t2 st13 st12">Highlights:</text>
		</g>
		<text transform="matrix(1 0 0 1 780.9887 187.7373)" class="s3t1"><tspan x="0" y="0" class="s3t2 st5 st12">-</tspan><tspan x="6.2" y="0" class="s3t2 st3 st12"> Code Hacker</tspan></text>
	</g>
	<g id="mouse" transform="translate(69.09830056250524, 0) rotate(-10.364745084375787)" class="s3t14">
		<path id="svg_3_1_" class="s3t15" d="M1701.8,903.5L1701.8,903.5c-12.1-8.9-29.1-6.4-38.1,5.6l-0.1,0.1l-0.1,0.2l-30.4,41.1
			l-0.3,0.5l-1.6,2.2l0,0c-8.9,12.2-6.2,29,5.8,37.9c12.1,9,29.2,6.3,38.1-5.7l32.3-43.7C1716.5,929.6,1713.9,912.5,1701.8,903.5z"
			/>
		<path id="svg_6" class="s3t16" d="M1642.1,947.6l20.9-29.7c11.8-16.7,32.2-22.6,45.5-13.2l0,0c13.4,9.4,14.7,30.6,2.9,47.3
			l-20.9,29.7c-11.8,16.7-32.2,22.6-45.5,13.2l0,0C1631.7,985.4,1630.4,964.3,1642.1,947.6z"/>
		<path id="svg_7" class="s3t17" d="M1685.7,930.3l3-4.3c3.1-4.5,7.7-6.7,10.1-4.9l0,0c2.4,1.7,1.9,6.7-1.3,11.2l-3,4.3
			c-3.1,4.5-7.7,6.7-10.1,4.9l0,0C1682,939.7,1682.6,934.7,1685.7,930.3z"/>
	</g>
	<g>
		<path id="svg_6_1_" class="s3t18" d="M1287.2,224.7c81.8-87.5-67.9-153.3-248.8-157.5c-281.6-5-717.9-19.9-782.7,59.3
			s-49.1,321.7-53.2,466.3"/>
	</g>
	<g>
		<ellipse id="svg_2_1_" class="s3t2" cx="1756.6" cy="394.1" rx="24.7" ry="24.7"/>
		<g>
			<text transform="matrix(1 0 0 1 1717.9717 357.0791)" class="s3t2 st3 st12">HTML/CSS</text>
		</g>
	</g>
	<g transform="translate(-100, -1)">
		<ellipse id="svg_2_2_" class="s3t2" cx="1700.7" cy="365.8" rx="24.7" ry="24.7"/>
		<g>
			<text transform="matrix(1 0 0 1 1632.168 328.8467)" class="s3t2 st3 st12">Javasccript/JQuery</text>
		</g>
	</g>
	<g transform="translate(-240, -2)">
		<ellipse id="svg_2_3_" class="s3t2" cx="1633" cy="355.6" rx="24.7" ry="24.7"/>
		<g>
			<text transform="matrix(1 0 0 1 1535.9015 319.6877)" class="s3t2 st3 st12">Web Frameworks(ReactJS)</text>
		</g>
	</g>
	<g transform="translate(-380, -2)">
		<ellipse id="svg_2_4_" class="s3t2" cx="1567.4" cy="360.6" rx="24.7" ry="24.7"/>
		<g>
			<text transform="matrix(1 0 0 1 1499.4121 323.6133)" class="s3t2 st3 st12">OpenGL &amp; WebGL</text>
		</g>
	</g>
	<g transform="translate(-520, 10)">
		<ellipse id="svg_2_5_" class="s3t2" cx="1551.8" cy="372.4" rx="24.7" ry="24.7"/>
		<g>
			<text transform="matrix(1 0 0 1 1514.7812 335.4101)" class="s3t2 st3 st12">NodeJS</text>
		</g>
	</g>
	<g transform="translate(-630, 90)">
		<ellipse id="svg_2_6_" class="s3t2" cx="1538.1" cy="382" rx="24.7" ry="24.7"/>
		<g>
			<text transform="matrix(1 0 0 1 1568.9624 388.2139)" class="s3t2 st3 st12">Java</text>
		</g>
	</g>
	<g transform="translate(-650, 200)">
		<ellipse id="svg_2_7_" class="s3t2" cx="1533.5" cy="407.7" rx="24.7" ry="24.7"/>
		<g>
			<text transform="matrix(1 0 0 1 1564.3013 413.8515)" class="s3t2 st3 st12">Machine Learning(Octave/Matlab)</text>
		</g>
	</g>
	<g transform="translate(-653, 300)">
		<ellipse id="svg_2_8_" class="s3t2" cx="1532.8" cy="431" rx="24.7" ry="24.7"/>
		<g>
			<text transform="matrix(1 0 0 1 1563.6021 437.1583)" class="s3t2 st3 st12">OpenCV(C++, some Python)</text>
		</g>
	</g>
</g>
<path class="s3t19" d="M1914.9,583.7c38.9-88.9-106.2-187.3-182.9-202.2c-34.1-6.6-149.7-22.9-268.8-27.9
	c-107.6-4.5-189.9-8.2-349.3,13.2c-97.8,13.1-141.6,23.5-163.2,40.2c-15,11.7-38.2,26.3-52.2,87.7c-15,65.9-15,115.2-18.7,189.6
	c-1.3,25.7-3.5,121.6-3.5,121.6"/>
</svg>
